<?xml version="1.0" encoding="utf-8"?>
<!-- Generator: Adobe Illustrator 19.2.1, SVG Export Plug-In . SVG Version: 6.00 Build 0)  -->
<svg version="1.1" id="Layer_1" xmlns="http://www.w3.org/2000/svg" xmlns:xlink="http://www.w3.org/1999/xlink" x="0px" y="0px"
	 viewBox="0 0 73.9 40"
	 style="enable-background:new 0 0 73.9 40;"
	 xml:space="preserve"
	 preserveAspectRatio="xMinYMin meet">
<style type="text/css">
	.st0{fill:#F4A932;}
</style>
<path id="polygon287" class="st0" d="M14.8,25.5l-4.7,2l4.3,1.8l5-1.8L14.8,25.5z M7.8,28l-0.2,9l6.8,3v-9.3L7.8,28z M21.8,28
	l-6.2,2.3v8.8l6.2-2.5V28z"/>
<path id="polygon311" class="st0" d="M29.2,0l-4.7,2l4.3,1.8l5-1.8L29.2,0z M22.7,2.7v9l5.8,1.7l0.2-8.2L22.7,2.7z M35.7,3.2
	l-5.5,2.3v8.8l5.5-2.5V3.2z"/>
<path id="use3387" class="st0" d="M7.2,12.7l-4.7,2l4.3,1.8l5-1.8L7.2,12.7z M0.2,15.2l-0.2,9l6.8,3v-9.3L0.2,15.2z M14.2,15.2
	L8,17.5v8.8l6.2-2.5V15.2z"/>
<path id="use3389" class="st0" d="M22.2,12.3l-4.7,2l4.3,1.8l5-1.8L22.2,12.3z M15.2,14.8l-0.2,9l6.8,3v-9.3L15.2,14.8z M29.2,14.8
	L23,17.2V26l6.2-2.5V14.8z"/>
<path id="use3391" class="st0" d="M43.8,0l-4.7,2l4.3,1.8l5-1.8L43.8,0z M36.8,2.5l-0.2,9l6.8,3V5.2L36.8,2.5z M50.8,2.5l-6.2,2.3
	v8.8l6.2-2.5V2.5z"/>
<g>
	<path d="M44.9,37.3h-3l-6.1-9.4h-2.7v9.4h-2.4V16.6h5.8c2,0,3.5,0.5,4.7,1.4c1.1,1,1.7,2.3,1.7,4c0,1.3-0.4,2.4-1.2,3.4
		c-0.8,1-2,1.6-3.4,2L44.9,37.3z M33.2,25.8h3c1.3,0,2.3-0.3,3.1-1c0.8-0.7,1.2-1.6,1.2-2.6c0-2.3-1.4-3.5-4.2-3.5h-3.1V25.8z"/>
	<path d="M46.4,16.6h4.1c2.7,0,4.9,0.9,6.5,2.8c1.6,1.8,2.4,4.4,2.4,7.6c0,3.3-0.8,5.8-2.5,7.6c-1.7,1.8-3.8,2.7-6.4,2.7h-4.2V16.6z
		 M48.8,35.2h1.7c2,0,3.5-0.7,4.7-2.2s1.7-3.5,1.7-6c0-2.6-0.6-4.6-1.7-6c-1.1-1.5-2.7-2.2-4.7-2.2h-1.7V35.2z"/>
	<path d="M72.4,18.9c-1.2-0.4-2.4-0.6-3.5-0.6c-1.2,0-2.3,0.3-3.1,0.9c-0.8,0.6-1.2,1.4-1.2,2.4c0,1.2,1,2.3,3.1,3.3
		c1.5,0.7,2.5,1.2,3,1.5c0.5,0.3,1,0.6,1.5,1.1s0.9,1,1.2,1.7c0.3,0.6,0.5,1.4,0.5,2.2c0,2-0.7,3.6-2,4.7c-1.4,1.1-2.9,1.7-4.8,1.7
		c-1.8,0-3.3-0.4-4.7-1.1l0.5-2.1c1.6,0.7,2.9,1.1,4.1,1.1c1.4,0,2.5-0.4,3.3-1.1s1.2-1.7,1.2-2.9c0-0.9-0.3-1.7-0.8-2.3
		c-0.5-0.6-1.5-1.3-3-2c-1.5-0.7-2.4-1.2-2.9-1.4c-0.4-0.2-0.9-0.6-1.3-1s-0.8-0.9-1-1.5s-0.4-1.1-0.4-1.8c0-1.7,0.6-3,1.8-4
		s2.8-1.4,4.7-1.4c1.4,0,2.7,0.2,4.1,0.6L72.4,18.9z"/>
</g>
</svg>
